<svg width="22" height="22" viewBox="0 0 22 22" fill="none" xmlns="http://www.w3.org/2000/svg">
<g clip-path="url(#clip0)">
<path d="M3.3687 8.74524V7.42601V2.37636C3.3687 1.66772 3.68126 1.00162 4.22627 0.548818C4.77129 0.0959703 5.48341 -0.0890102 6.18006 0.0406265C6.18857 0.0422163 6.19708 0.044064 6.2055 0.0462124C6.24151 0.0551929 9.82007 0.94615 10.9992 0.94615C12.1778 0.94615 15.7568 0.0551929 15.7928 0.0462124C15.8012 0.044064 15.8097 0.0422163 15.8183 0.0406265C16.5148 -0.0892251 17.2269 0.0959702 17.772 0.548775C18.317 1.00162 18.6296 1.66768 18.6296 2.37641V7.56295V8.74528C20.8239 9.43175 21.9817 10.366 21.9817 11.4567C21.9817 12.5508 20.8083 13.4931 18.5884 14.1816C16.5552 14.8123 13.8599 15.1596 10.9991 15.1596C8.13836 15.1596 5.44306 14.8123 3.40982 14.1816C1.18993 13.4931 0.0165367 12.5508 0.0165367 11.4567C0.0165806 10.366 1.17437 9.43175 3.3687 8.74524ZM17.7702 6.56629C15.8992 7.0133 13.6047 7.25731 11.2352 7.25731C9.79872 7.25731 8.40404 7.17035 7.08997 6.99881C6.85467 6.96809 6.68881 6.75243 6.71953 6.51714C6.75026 6.2818 6.96592 6.11555 7.20121 6.14666C8.47855 6.31338 9.8358 6.39794 11.2352 6.39794C13.6259 6.39794 15.9301 6.14429 17.7702 5.68139V2.37636C17.7702 1.92399 17.5707 1.49881 17.2228 1.20976C16.8781 0.923377 16.4286 0.804568 15.9877 0.883287C15.7051 0.953627 12.2567 1.80553 10.9991 1.80553C9.74165 1.80553 6.29324 0.95367 6.01063 0.883287C5.56977 0.804654 5.12024 0.923334 4.7755 1.20976C4.42758 1.49877 4.22812 1.92399 4.22812 2.37632V7.1049C6.13993 7.64919 8.61166 7.94765 11.2353 7.94765C13.626 7.94765 15.9302 7.69401 17.7702 7.23115V6.56629H17.7702ZM17.7702 9.06419V8.11617C15.8994 8.56314 13.6048 8.80707 11.2353 8.80707C8.64054 8.80707 6.18006 8.52098 4.22812 7.99681V8.66364C6.09726 9.15662 8.4761 9.42767 10.9474 9.42767C12.3471 9.42767 13.7044 9.3431 14.9814 9.17638C15.2168 9.14523 15.4323 9.31152 15.4631 9.54682C15.4938 9.78216 15.3279 9.99782 15.0926 10.0285C13.7789 10.2 12.3842 10.287 10.9474 10.287C8.49943 10.287 6.13155 10.0267 4.22812 9.55103V10.0954C6.1398 10.6396 8.61175 10.9378 11.2353 10.9378C13.626 10.9378 15.9303 10.6844 17.7702 10.2215V9.06419ZM3.66441 13.3608C5.61751 13.9666 8.22237 14.3002 10.9991 14.3002C13.7759 14.3002 16.3808 13.9666 18.3338 13.3608C20.0538 12.8273 21.1223 12.0977 21.1223 11.4567C21.1223 10.8479 20.1814 10.1738 18.6296 9.64896V10.5531C18.6296 10.6378 18.6047 10.718 18.5612 10.7857C18.5051 10.8726 18.4181 10.9389 18.313 10.9676C17.088 11.302 15.6467 11.5425 14.1023 11.6758C13.9478 11.6891 13.7924 11.7014 13.636 11.7126C13.3232 11.7349 13.0067 11.7529 12.6875 11.7665C12.2086 11.7869 11.7235 11.7972 11.2353 11.7972C8.38737 11.7972 5.70126 11.4526 3.67185 10.8269C3.49168 10.7713 3.36875 10.6048 3.36875 10.4162V9.649C1.81688 10.1738 0.875956 10.848 0.875956 11.4568C0.875999 12.0977 1.94446 12.8273 3.66441 13.3608Z" fill="#5A5A5A"/>
<path d="M5.02357 6.20714C5.02915 6.17959 5.03728 6.15252 5.04802 6.12635C5.05876 6.10053 5.07212 6.07561 5.08759 6.05241C5.10302 6.02877 5.12107 6.00686 5.14083 5.98709C5.1606 5.96733 5.18255 5.94928 5.20619 5.93381C5.22939 5.91839 5.25431 5.90502 5.28048 5.89428C5.3063 5.88354 5.33333 5.87495 5.36083 5.86979C5.50048 5.84147 5.64872 5.88741 5.74841 5.98709C5.76818 6.00686 5.78622 6.02877 5.80165 6.05241C5.81712 6.07561 5.83044 6.10053 5.84118 6.12635C5.85192 6.15252 5.86052 6.17959 5.8661 6.20714C5.87173 6.23464 5.87427 6.26299 5.87427 6.29092C5.87427 6.31881 5.87169 6.34717 5.8661 6.37467C5.86052 6.40217 5.85192 6.42924 5.84118 6.45502C5.83044 6.48123 5.81712 6.50615 5.80165 6.52936C5.78622 6.55299 5.76818 6.57486 5.74841 6.59467C5.72865 6.61444 5.70669 6.63248 5.6831 6.64838C5.6599 6.66346 5.63497 6.67674 5.60919 6.68748C5.58298 6.69822 5.55591 6.70643 5.52841 6.71197C5.50087 6.71756 5.47255 6.72057 5.44462 6.72057C5.41669 6.72057 5.38833 6.71756 5.36083 6.71197C5.33333 6.70639 5.30626 6.69822 5.28048 6.68748C5.25431 6.67674 5.22939 6.66346 5.20619 6.64838C5.18255 6.63248 5.16064 6.61444 5.14083 6.59467C5.12107 6.5749 5.10302 6.55299 5.08759 6.52936C5.07212 6.50615 5.05876 6.48123 5.04802 6.45502C5.03728 6.42924 5.02915 6.40217 5.02357 6.37467C5.01798 6.34717 5.01497 6.31881 5.01497 6.29092C5.01497 6.26299 5.01798 6.23459 5.02357 6.20714Z" fill="#5A5A5A"/>
<path d="M16.3181 9.23685C16.3239 9.20935 16.332 9.18228 16.3427 9.1565C16.3535 9.13033 16.3668 9.10541 16.3822 9.08216C16.3981 9.05848 16.4162 9.03657 16.436 9.01685C16.4557 8.99708 16.4776 8.97903 16.5013 8.96357C16.5245 8.94771 16.5494 8.93478 16.5752 8.92403C16.6014 8.91329 16.6285 8.90474 16.6556 8.89959C16.711 8.88837 16.7681 8.88837 16.8236 8.89959C16.8511 8.90474 16.8781 8.91329 16.9039 8.92403C16.9301 8.93478 16.955 8.94771 16.9782 8.96357C17.0019 8.97903 17.0238 8.99708 17.0436 9.01685C17.0633 9.03661 17.0814 9.05853 17.0968 9.08216C17.1123 9.10536 17.1256 9.13028 17.1363 9.1565C17.1471 9.18232 17.1553 9.20935 17.1608 9.23685C17.1664 9.26435 17.1694 9.29271 17.1694 9.32064C17.1694 9.43364 17.1235 9.5445 17.0435 9.62442C17.0237 9.64419 17.0018 9.66224 16.9782 9.67766C16.955 9.69313 16.9301 9.70645 16.9039 9.71719C16.8781 9.72793 16.851 9.73653 16.8235 9.74168C16.796 9.74727 16.7676 9.75028 16.7397 9.75028C16.7118 9.75028 16.6834 9.74727 16.656 9.74168C16.6285 9.73653 16.6014 9.72793 16.5752 9.71719C16.5494 9.70645 16.5245 9.69313 16.5013 9.67766C16.4776 9.66224 16.4557 9.64419 16.4359 9.62442C16.356 9.5445 16.31 9.43364 16.31 9.32064C16.31 9.29271 16.3126 9.2643 16.3181 9.23685Z" fill="#5A5A5A"/>
<path d="M4.64772 16.3281H17.3523C18.3829 16.3281 19.2214 17.1666 19.2214 18.1972V20.0449C19.2214 21.123 18.3444 22 17.2664 22H14.4816C12.7545 22 11.3494 20.595 11.3494 18.8679V17.1875H10.6505V18.8679C10.6505 20.5949 9.24547 22 7.51838 22H4.73353C3.65549 22 2.77841 21.123 2.77841 20.0449V18.1972C2.77854 17.1666 3.61708 16.3281 4.64772 16.3281ZM14.4816 21.1406H17.2664C17.8706 21.1406 18.3621 20.6491 18.3621 20.0449V18.1972C18.3621 17.6404 17.9091 17.1875 17.3523 17.1875H12.2089V18.8679H12.2089C12.2089 20.1211 13.2284 21.1406 14.4816 21.1406ZM4.73366 21.1406H7.51851C8.77165 21.1406 9.79121 20.1211 9.79121 18.8679V17.1875H4.64781C4.09102 17.1875 3.63804 17.6404 3.63804 18.1972V20.0449H3.638C3.63791 20.6491 4.12948 21.1406 4.73366 21.1406Z" fill="#5A5A5A"/>
<path d="M15.7402 17.6262C15.908 17.4585 16.18 17.4585 16.3479 17.6262L17.7372 19.0156C17.905 19.1834 17.905 19.4555 17.7372 19.6233C17.6533 19.7072 17.5433 19.7491 17.4334 19.7491C17.3234 19.7491 17.2134 19.7072 17.1296 19.6233L15.7402 18.2339C15.5724 18.0662 15.5724 17.7941 15.7402 17.6262Z" fill="#5A5A5A"/>
<path d="M7.04394 17.6262C7.21169 17.4585 7.48377 17.4585 7.6516 17.6262L9.0409 19.0156C9.2087 19.1834 9.2087 19.4555 9.0409 19.6233C8.95699 19.7072 8.84703 19.7491 8.73707 19.7491C8.62712 19.7491 8.51716 19.7072 8.43324 19.6233L7.04394 18.2339C6.87615 18.0662 6.87615 17.7941 7.04394 17.6262Z" fill="#5A5A5A"/>
</g>
<defs>
<clipPath id="clip0">
<rect width="22" height="22" fill="white" transform="matrix(-1 0 0 1 22 0)"/>
</clipPath>
</defs>
</svg>
