<svg width="37" height="37" viewBox="0 0 37 37" fill="none" xmlns="http://www.w3.org/2000/svg">
<g clip-path="url(#clip0)">
<path d="M30.7127 0H6.26892C5.7641 0 5.35431 0.409433 5.35431 0.914614V35.1694C5.3536 35.8557 5.73695 36.4845 6.34717 36.7982C6.95774 37.1115 7.69229 37.0569 8.24928 36.6564L18.4908 29.3148L28.7327 36.656C29.29 37.0558 30.0239 37.1101 30.6341 36.7968C31.2439 36.4834 31.6277 35.855 31.6277 35.1694V0.914614C31.6277 0.409433 31.2179 0 30.7127 0ZM29.7981 35.169L19.0242 27.4459C18.7055 27.2176 18.2768 27.2176 17.9585 27.4459L7.18425 35.1694V1.82923H29.7981V35.169Z" fill="#5A5A5A"/>
</g>
<defs>
<clipPath id="clip0">
<rect width="37" height="37" fill="white"/>
</clipPath>
</defs>
</svg>
