<svg width="22" height="22" viewBox="0 0 22 22" fill="none" xmlns="http://www.w3.org/2000/svg">
<g clip-path="url(#clip0)">
<path d="M18.7911 3.2713C16.6557 1.11016 13.7227 -0.0733262 10.6868 0.00385748C4.64078 0.183953 -0.0931523 5.20089 0.0869429 11.2469C0.112671 12.5076 0.36995 13.7425 0.833051 14.9003C1.21897 15.878 1.73353 16.7784 2.37672 17.6017L1.47625 19.7371C1.11606 20.5604 1.50198 21.5124 2.32527 21.8726C2.60827 22.0012 2.94274 22.0269 3.25147 21.9755L7.41939 21.2551C8.91161 21.7696 10.481 21.9497 12.0504 21.7954C17.4275 21.2551 21.6212 16.8556 21.9042 11.4528C22.0586 8.39115 20.9265 5.43244 18.7911 3.2713ZM10.198 15.2862H7.34221C6.90483 15.2862 6.51891 14.926 6.51891 14.4629C6.51891 14.0256 6.8791 13.6396 7.34221 13.6396H10.198C10.6354 13.6396 11.0213 13.9998 11.0213 14.4629C11.0213 14.926 10.6611 15.2862 10.198 15.2862ZM14.6489 11.9416H7.34221C6.90483 11.9416 6.51891 11.5814 6.51891 11.1183C6.51891 10.6552 6.8791 10.295 7.34221 10.295H14.6489C15.0863 10.295 15.4722 10.6552 15.4722 11.1183C15.4722 11.5814 15.0863 11.9416 14.6489 11.9416ZM14.6489 8.57124H7.34221C6.90483 8.57124 6.51891 8.21105 6.51891 7.74795C6.51891 7.31058 6.8791 6.92466 7.34221 6.92466H14.6489C15.0863 6.92466 15.4722 7.28485 15.4722 7.74795C15.4722 8.18532 15.0863 8.57124 14.6489 8.57124Z" fill="#5A5A5A"/>
</g>
<defs>
<clipPath id="clip0">
<rect width="22" height="22" fill="white"/>
</clipPath>
</defs>
</svg>
