<svg width="22" height="22" viewBox="0 0 22 22" fill="none" xmlns="http://www.w3.org/2000/svg">
<path d="M0 13.75V2.75C0 1.99066 0.615578 1.375 1.375 1.375H5.5V15.125H1.375C0.615578 15.125 0 14.5094 0 13.75Z" fill="#5A5A5A"/>
<path d="M19.4608 13.7503H15.3989C15.0438 13.7503 14.8658 13.9873 14.8061 14.0893C14.7463 14.1907 14.6255 14.4613 14.7974 14.7715L16.2294 17.3503C16.5436 17.9149 16.5759 18.5789 16.3187 19.1717C16.0616 19.7652 15.554 20.1956 14.9263 20.352L13.9165 20.6045C13.6708 20.6662 13.4103 20.5877 13.2391 20.3977L7.75653 14.3069C7.18787 13.6737 6.875 12.8573 6.875 12.0074V4.81279C6.875 2.91747 8.41717 1.37529 10.3125 1.37529L17.1519 1.37596C18.6961 1.37596 20.0597 2.41594 20.4672 3.90441L21.9349 10.6398C21.9778 10.8271 22 11.0191 22 11.2111C22 12.611 20.8606 13.7503 19.4608 13.7503L19.4608 13.7503Z" fill="#5A5A5A"/>
</svg>
