<svg width="35" height="34" viewBox="0 0 35 34" fill="none" xmlns="http://www.w3.org/2000/svg">
<path fill-rule="evenodd" clip-rule="evenodd" d="M17 0C7.61121 0 0 7.61116 0 17C0 26.3888 7.61121 34 17 34H18C27.3888 34 35 26.3888 35 17C35 7.61116 27.3888 0 18 0H17ZM6.48865 12.761L27.069 6.03613C27.6189 5.85632 28.1444 6.37859 27.964 6.9312L21.2391 27.5115C21.0494 28.0922 20.259 28.1772 19.951 27.6478L15.4286 19.8703C15.286 19.625 15.3032 19.3183 15.4724 19.0904L17.0959 16.9041L14.9097 18.5277C14.6819 18.6969 14.3752 18.7142 14.1299 18.5715L6.35242 14.049C5.82336 13.7415 5.90747 12.9509 6.48865 12.761ZM16.8906 19.5611L20.3818 25.5651L26.1804 7.81961L8.43494 13.6181L14.439 17.1094L20.1075 12.8996C20.3901 12.6898 20.7837 12.7187 21.0325 12.9675C21.2814 13.2163 21.3102 13.6099 21.1005 13.8924L16.8906 19.5611ZM8.73914 26.2645L13.4512 21.5525C13.7284 21.2753 13.7284 20.826 13.4512 20.5489C13.1742 20.2717 12.7249 20.2718 12.4476 20.5489L7.73547 25.2609C7.45837 25.538 7.45837 25.9874 7.73547 26.2645C8.0127 26.5417 8.46204 26.5416 8.73914 26.2645ZM7.2262 20.7272C6.94897 21.0043 6.94897 21.4536 7.2262 21.7308C7.5033 22.0079 7.95264 22.0078 8.22974 21.7308L10.0891 19.8714C10.3662 19.5943 10.3662 19.145 10.0891 18.8678C9.81189 18.5906 9.36255 18.5906 9.08545 18.8678L7.2262 20.7272ZM15.1322 24.9145C15.4094 24.6374 15.4094 24.1881 15.1322 23.9109C14.8551 23.6338 14.4058 23.6338 14.1287 23.9109L12.2693 25.7703C11.821 26.2186 12.1445 26.9818 12.7711 26.9818C12.9528 26.9818 13.1343 26.9125 13.2729 26.7739L15.1322 24.9145Z" fill="#71BA75"/>
</svg>
