<svg width="12" height="12" viewBox="0 0 12 12" fill="none" xmlns="http://www.w3.org/2000/svg">
<g clip-path="url(#clip0)">
<path d="M5.44238 7.90452L6.06128 8.31218C6.42132 8.54932 6.86353 8.62664 7.28268 8.52572L10.5226 11.7656L11.7655 8.48044L9.76115 6.47608C9.76115 6.10451 9.71624 5.73755 9.62941 5.38251L5.44238 7.90452Z" fill="#FFBF9E"/>
<path d="M10.1675 4.04952C9.94792 3.82998 9.59201 3.82998 9.3725 4.04952C9.59201 3.82998 9.59201 3.47407 9.3725 3.25456C9.15296 3.03504 8.79705 3.03504 8.57754 3.25456C8.79707 3.03504 8.79707 2.67911 8.57754 2.45959C8.35802 2.24006 8.00209 2.24006 7.78257 2.45959C8.00209 2.24006 8.00209 1.88414 7.78257 1.66463C7.56304 1.44512 7.20712 1.44512 6.98761 1.66463L6.01397 2.63828L3.04154 6.05294L0.240112 8.85437L1.35117 11.7537L4.97463 8.13021C5.17825 7.92659 5.45446 7.81217 5.74243 7.81217C6.67553 7.81217 7.57042 7.44149 8.23025 6.78169L10.1675 4.84448C10.387 4.62497 10.387 4.26903 10.1675 4.04952Z" fill="#FFD4BE"/>
<path d="M2.1925 6.9019L4.19768 8.90708L4.97457 8.13019C4.99874 8.10603 5.02403 8.0832 5.05013 8.06157L3.04149 6.05292L2.1925 6.9019Z" fill="#91DEF5"/>
<path d="M7.67786 8.92249L9.94156 6.65878L10.7904 7.50764L8.52672 9.77135L7.67786 8.92249Z" fill="#F6838D"/>
<path d="M3.83657 5.258L2.99253 4.41396C2.773 4.19442 2.773 3.83851 2.99253 3.619C3.21207 3.39946 3.56798 3.39946 3.78749 3.619L4.63153 4.46303C4.85107 4.68257 4.85107 5.03848 4.63153 5.258C4.412 5.47753 4.05608 5.47753 3.83657 5.258Z" fill="#FFBF9E"/>
<path d="M4.63149 4.46295L3.78745 3.61891C3.56792 3.39938 3.56792 3.04346 3.78745 2.82395C4.00699 2.60442 4.3629 2.60442 4.58241 2.82395L5.42645 3.66799C5.64599 3.88753 5.64599 4.24344 5.42645 4.46295C5.20694 4.68246 4.851 4.68246 4.63149 4.46295Z" fill="#FFBF9E"/>
<path d="M5.42654 3.66803L4.5825 2.82399C4.36296 2.60446 4.36296 2.24854 4.5825 2.02903C4.80203 1.8095 5.15795 1.8095 5.37746 2.02903L6.2215 2.87307C6.44103 3.0926 6.44103 3.44852 6.2215 3.66803C6.00199 3.88754 5.64607 3.88754 5.42654 3.66803Z" fill="#FFBF9E"/>
<path d="M3.04152 6.05291L2.54405 5.55544C2.32451 5.3359 2.32451 4.97999 2.54405 4.76048C2.76358 4.54094 3.1195 4.54094 3.33901 4.76048L3.83648 5.25795C4.05602 5.47749 4.05602 5.8334 3.83648 6.05291C3.61697 6.27245 3.26106 6.27245 3.04152 6.05291Z" fill="#FFBF9E"/>
<path d="M10.1949 6.5784C10.1939 6.17702 10.0993 5.78255 9.91894 5.42446L10.3332 5.01023C10.6437 4.69969 10.6437 4.19436 10.3332 3.8838C10.1783 3.7289 9.97493 3.6513 9.77145 3.65093C9.77117 3.43859 9.68837 3.23902 9.53821 3.08884C9.38322 2.93387 9.17972 2.85625 8.97612 2.85597C8.97584 2.65237 8.89821 2.44887 8.74322 2.29388C8.59313 2.14381 8.39368 2.06101 8.18151 2.06063C8.18111 1.84846 8.09833 1.64901 7.94826 1.49892C7.79782 1.34847 7.59778 1.26562 7.38505 1.26562C7.17231 1.26562 6.97227 1.34847 6.82186 1.49892L6.00025 2.32053L5.54308 1.86334C5.39264 1.7129 5.19263 1.63005 4.97987 1.63005C4.76711 1.63005 4.56709 1.7129 4.41668 1.86334C4.26649 2.01352 4.18371 2.21309 4.18341 2.42543C3.97995 2.42581 3.77659 2.50341 3.62169 2.6583C3.4716 2.80839 3.38882 3.00782 3.38842 3.22002C3.17625 3.22041 2.9768 3.30319 2.82671 3.45328C2.57026 3.70973 2.52582 4.09891 2.69291 4.40164C2.57783 4.43926 2.46962 4.5035 2.37831 4.59481C2.06777 4.90537 2.06777 5.41068 2.37831 5.72124L2.71006 6.05299L0.0743785 8.68867C-0.0171431 8.7802 -0.0171431 8.9286 0.0743785 9.02014C0.120151 9.06589 0.180126 9.08879 0.240102 9.08879C0.300077 9.08879 0.360076 9.06589 0.405825 9.02014L2.19252 7.23344L3.86623 8.90715L1.18541 11.588C1.09389 11.6795 1.09389 11.8279 1.18541 11.9194C1.23118 11.9652 1.29116 11.9881 1.35113 11.9881C1.41111 11.9881 1.47111 11.9652 1.51686 11.9194L5.14032 8.29599C5.20707 8.22924 5.28305 8.17514 5.36527 8.13446L5.93235 8.50797C6.30741 8.755 6.76469 8.85151 7.20557 8.78013L10.3568 11.9314C10.4026 11.9771 10.4626 12 10.5226 12C10.5825 12 10.6425 11.9771 10.6883 11.9314C10.7798 11.8399 10.7798 11.6915 10.6883 11.5999L8.85987 9.77151L9.0809 9.55048C9.17243 9.45896 9.17243 9.31055 9.0809 9.21901C8.98938 9.12751 8.84098 9.12751 8.74943 9.21901L8.5284 9.44004L8.01089 8.92253L9.94346 6.98993L10.461 7.50747L10.2405 7.72801C10.1489 7.81956 10.1489 7.96794 10.2405 8.05948C10.2862 8.10523 10.3462 8.12813 10.4062 8.12813C10.4662 8.12813 10.5261 8.10523 10.5719 8.05948L10.7924 7.83894L11.5997 8.64623C11.6455 8.69198 11.7055 8.71488 11.7655 8.71488C11.8254 8.71488 11.8854 8.69198 11.9312 8.64623C12.0227 8.55471 12.0227 8.4063 11.9312 8.31476L10.1949 6.5784ZM7.1533 1.83036C7.2152 1.76847 7.29751 1.73437 7.38505 1.73437C7.47258 1.73437 7.5549 1.76847 7.61679 1.83036C7.67871 1.89226 7.71279 1.97457 7.71279 2.06211C7.71279 2.14967 7.67869 2.23198 7.61679 2.29388L7.10176 2.80891C7.01024 2.90043 7.01024 3.04883 7.10176 3.14038C7.19329 3.23192 7.34169 3.2319 7.43323 3.14038L7.94826 2.62535C8.01016 2.56343 8.09247 2.52935 8.18003 2.52935C8.26757 2.52935 8.34988 2.56345 8.41178 2.62535C8.53958 2.75315 8.53958 2.96106 8.41178 3.08886L7.62532 3.87532C7.5338 3.96684 7.5338 4.11524 7.62532 4.20679C7.6711 4.25256 7.73107 4.27543 7.79105 4.27543C7.85102 4.27543 7.91102 4.25256 7.95677 4.20679L8.74322 3.42033C8.80512 3.35841 8.88743 3.32433 8.97497 3.32433C9.06253 3.32433 9.14484 3.35844 9.20674 3.42033C9.26864 3.48223 9.30274 3.56454 9.30274 3.65208C9.30274 3.73962 9.26864 3.82193 9.20674 3.88382L8.42029 4.67028C8.32876 4.7618 8.32876 4.9102 8.42029 5.00175C8.46606 5.04752 8.52603 5.07039 8.58601 5.07039C8.64598 5.07039 8.70598 5.04752 8.75173 5.00175L9.53816 4.21529C9.66594 4.08749 9.8739 4.08751 10.0017 4.21529C10.1295 4.3431 10.1295 4.55103 10.0017 4.67881L8.06446 6.61602C7.44423 7.23628 6.61957 7.57788 5.74237 7.57788C5.50483 7.57788 5.27698 7.64043 5.07725 7.75731L3.72069 6.40075C3.82508 6.36133 3.92089 6.29999 4.00217 6.21871C4.15235 6.06853 4.23513 5.86896 4.23544 5.65662C4.43889 5.65625 4.64226 5.57863 4.79715 5.42373C4.95205 5.26884 5.02965 5.0655 5.03002 4.86202C5.24236 4.86173 5.44195 4.77893 5.59211 4.62875C5.74701 4.47385 5.82461 4.27051 5.82498 4.06703C6.03732 4.06675 6.23689 3.98395 6.38705 3.83379C6.53749 3.68334 6.62034 3.48333 6.62034 3.27057C6.62034 3.05781 6.53749 2.8578 6.38705 2.70735L6.33162 2.65193L7.1533 1.83036ZM4.74812 2.19479C4.81002 2.13289 4.89233 2.09879 4.97987 2.09879C5.06741 2.09879 5.14972 2.13289 5.21161 2.19479L6.05568 3.03882C6.11757 3.10072 6.15167 3.18303 6.15167 3.27057C6.15167 3.35811 6.11757 3.44042 6.05568 3.50234C5.99378 3.56424 5.91147 3.59834 5.82393 3.59834C5.73642 3.59834 5.65415 3.56426 5.59225 3.50241C5.59223 3.50239 5.59221 3.50236 5.59218 3.50232L4.74812 2.65828C4.68622 2.59638 4.65212 2.51407 4.65212 2.42653C4.65212 2.33899 4.6862 2.25671 4.74812 2.19479ZM3.95314 2.98975C4.01705 2.92583 4.10096 2.89391 4.18491 2.89391C4.26883 2.89391 4.35279 2.92586 4.41665 2.98975L5.26069 3.83379C5.38849 3.96159 5.38847 4.16952 5.26069 4.29732C5.19879 4.35922 5.11648 4.39332 5.02894 4.39332C4.94143 4.39332 4.85917 4.35924 4.79727 4.29739C4.79725 4.29737 4.79722 4.29735 4.7972 4.2973L3.95316 3.45326C3.89124 3.39136 3.85716 3.30905 3.85716 3.22149C3.85714 3.13396 3.89124 3.05167 3.95314 2.98975ZM3.15818 3.78473C3.22007 3.72281 3.30239 3.68873 3.38992 3.68873C3.47748 3.68873 3.55979 3.72283 3.62169 3.78473L4.46573 4.62877C4.59353 4.75657 4.59353 4.96451 4.46573 5.09228C4.33793 5.22006 4.12999 5.22009 4.00219 5.09228L3.15815 4.24825C3.03038 4.12047 3.03037 3.91251 3.15818 3.78473ZM2.70976 4.92626C2.77367 4.86234 2.8576 4.83042 2.94153 4.83042C3.02534 4.83042 3.10919 4.86232 3.17304 4.92604L3.67074 5.42375C3.73264 5.48565 3.76674 5.56796 3.76674 5.6555C3.76674 5.74304 3.73264 5.82535 3.67074 5.88727C3.60885 5.94919 3.52654 5.98327 3.43898 5.98327C3.35151 5.98327 3.26925 5.94921 3.20735 5.88739L3.20723 5.88727L2.70976 5.38979C2.58198 5.26197 2.58198 5.05403 2.70976 4.92626ZM2.52399 6.90198L3.04153 6.38444L4.71526 8.05815L4.19773 8.57568L2.52399 6.90198ZM7.4484 8.36002C7.39067 8.30231 7.3071 8.27867 7.22778 8.29791C6.87306 8.38329 6.49488 8.3172 6.1902 8.11651L6.06327 8.03288C6.94462 7.95873 7.76337 7.58008 8.39596 6.94747L9.56561 5.77784C9.66622 6.021 9.7205 6.28089 9.72549 6.54508L7.67949 8.59111L7.4484 8.36002Z" fill="black"/>
<path d="M9.49482 8.47376C9.45123 8.51736 9.42615 8.57759 9.42615 8.63947C9.42615 8.70111 9.45123 8.76157 9.49482 8.80515C9.53841 8.84874 9.59888 8.87384 9.66052 8.87384C9.7224 8.87384 9.78263 8.84876 9.82623 8.80515C9.86982 8.76157 9.8949 8.70111 9.8949 8.63947C9.8949 8.57757 9.86982 8.51736 9.82623 8.47376C9.78263 8.43017 9.72216 8.40509 9.66052 8.40509C9.59888 8.40509 9.53841 8.43017 9.49482 8.47376Z" fill="black"/>
<path d="M1.5835 1.91482C1.62927 1.96059 1.68925 1.98346 1.74922 1.98346C1.8092 1.98346 1.8692 1.96059 1.91495 1.91482C2.00647 1.82329 2.00647 1.67489 1.91495 1.58335L0.811741 0.48014C0.72022 0.388619 0.571816 0.388619 0.480271 0.48014C0.388726 0.571662 0.388749 0.720065 0.480271 0.81161L1.5835 1.91482Z" fill="black"/>
<path d="M2.85937 1.27769C2.98881 1.27769 3.09374 1.17277 3.09374 1.04332V0.23437C3.09374 0.104928 2.98881 0 2.85937 0C2.72993 0 2.625 0.104928 2.625 0.23437V1.04332C2.625 1.17277 2.72993 1.27769 2.85937 1.27769Z" fill="black"/>
<path d="M0.234737 3.09368H1.04369C1.17313 3.09368 1.27806 2.98875 1.27806 2.85931C1.27806 2.72987 1.17313 2.62494 1.04369 2.62494H0.234737C0.105294 2.62494 0.000366211 2.72987 0.000366211 2.85931C0.000366211 2.98875 0.105294 3.09368 0.234737 3.09368Z" fill="black"/>
<path d="M10.2509 1.98347C10.3108 1.98347 10.3708 1.9606 10.4166 1.91482L11.5198 0.811619C11.6113 0.720098 11.6113 0.571694 11.5198 0.480149C11.4283 0.388604 11.2799 0.388627 11.1883 0.480149L10.0851 1.58335C9.9936 1.67488 9.9936 1.82328 10.0851 1.91482C10.1309 1.9606 10.1909 1.98347 10.2509 1.98347Z" fill="black"/>
<path d="M9.14062 1.27769C9.27006 1.27769 9.37499 1.17277 9.37499 1.04332V0.23437C9.37499 0.104928 9.27006 0 9.14062 0C9.01118 0 8.90625 0.104928 8.90625 0.23437V1.04332C8.90625 1.17277 9.01118 1.27769 9.14062 1.27769Z" fill="black"/>
<path d="M10.7223 2.85931C10.7223 2.98875 10.8272 3.09368 10.9567 3.09368H11.7656C11.8951 3.09368 12 2.98875 12 2.85931C12 2.72987 11.8951 2.62494 11.7656 2.62494H10.9567C10.8272 2.62494 10.7223 2.72987 10.7223 2.85931Z" fill="black"/>
</g>
<defs>
<clipPath id="clip0">
<rect width="12" height="12" fill="white"/>
</clipPath>
</defs>
</svg>
