<?xml version="1.0" encoding="UTF-8"?>
<svg xmlns="http://www.w3.org/2000/svg" xmlns:xlink="http://www.w3.org/1999/xlink" width="20" height="20" viewBox="0 0 20 20" version="1.1">
<g id="surface1">
<path style=" stroke:none;fill-rule:nonzero;fill:rgb(100%,100%,100%);fill-opacity:1;" d="M 19.433594 4.773438 C 19.394531 4.769531 18.621094 4.746094 17.488281 4.769531 L 17.488281 2.445312 C 17.488281 2.101562 17.195312 1.828125 16.851562 1.859375 C 14.589844 2.046875 11.714844 3.046875 10 4.867188 C 8.285156 3.046875 5.410156 2.046875 3.148438 1.859375 C 2.804688 1.832031 2.511719 2.101562 2.511719 2.445312 L 2.511719 4.832031 C 1.867188 4.808594 1.257812 4.789062 0.605469 4.773438 C 0.277344 4.761719 0 5.027344 0 5.359375 L 0 16.070312 C 0 16.382812 0.238281 16.636719 0.546875 16.660156 C 2.886719 16.816406 6.808594 16.835938 9.769531 18.097656 C 10.03125 18.210938 10.269531 18.082031 10.230469 18.097656 C 13.191406 16.835938 17.109375 16.816406 19.453125 16.660156 C 19.761719 16.636719 20 16.382812 20 16.070312 L 20 5.359375 C 20 5.042969 19.75 4.78125 19.433594 4.773438 Z M 16.3125 3.105469 L 16.3125 13.1875 C 14.617188 13.566406 12.464844 14.378906 10.589844 16.09375 C 10.589844 15.578125 10.589844 6.261719 10.589844 5.984375 C 11.875 4.378906 14.3125 3.410156 16.3125 3.105469 Z M 3.6875 3.105469 C 5.6875 3.410156 8.125 4.378906 9.410156 5.984375 L 9.410156 16.09375 C 7.535156 14.378906 5.382812 13.566406 3.6875 13.1875 Z M 1.175781 15.519531 L 1.175781 5.964844 C 1.597656 5.976562 2.046875 5.992188 2.511719 6.007812 L 2.511719 13.667969 C 2.511719 13.949219 2.714844 14.195312 2.992188 14.246094 C 4.335938 14.496094 6.082031 15.046875 7.710938 16.222656 C 5.386719 15.703125 2.957031 15.617188 1.175781 15.519531 Z M 18.824219 15.519531 C 17.046875 15.617188 14.613281 15.703125 12.289062 16.222656 C 13.917969 15.046875 15.664062 14.496094 17.007812 14.246094 C 17.285156 14.195312 17.488281 13.949219 17.488281 13.667969 L 17.488281 5.945312 C 18.03125 5.933594 18.492188 5.933594 18.824219 5.9375 Z M 18.824219 15.519531 "/>
<path style=" stroke:none;fill-rule:nonzero;fill:rgb(100%,100%,100%);fill-opacity:1;" d="M 7.886719 7.335938 C 7.429688 7.019531 6.644531 6.628906 5.808594 6.488281 C 5.488281 6.433594 5.183594 6.652344 5.128906 6.972656 C 5.074219 7.292969 5.289062 7.59375 5.609375 7.648438 C 6.257812 7.757812 6.878906 8.070312 7.214844 8.304688 C 7.480469 8.488281 7.847656 8.421875 8.03125 8.15625 C 8.21875 7.890625 8.152344 7.523438 7.886719 7.335938 Z M 7.886719 7.335938 "/>
<path style=" stroke:none;fill-rule:nonzero;fill:rgb(100%,100%,100%);fill-opacity:1;" d="M 7.828125 10.652344 C 7.410156 10.394531 6.589844 9.945312 5.808594 9.8125 C 5.488281 9.757812 5.183594 9.976562 5.128906 10.296875 C 5.074219 10.617188 5.289062 10.917969 5.609375 10.972656 C 6.21875 11.074219 6.933594 11.484375 7.214844 11.65625 C 7.492188 11.824219 7.855469 11.734375 8.023438 11.460938 C 8.191406 11.183594 8.105469 10.820312 7.828125 10.652344 Z M 7.828125 10.652344 "/>
<path style=" stroke:none;fill-rule:nonzero;fill:rgb(100%,100%,100%);fill-opacity:1;" d="M 12.785156 8.304688 C 13.121094 8.070312 13.742188 7.757812 14.390625 7.648438 C 14.710938 7.59375 14.925781 7.292969 14.871094 6.972656 C 14.816406 6.652344 14.511719 6.433594 14.191406 6.488281 C 13.355469 6.628906 12.570312 7.019531 12.113281 7.339844 C 11.847656 7.523438 11.78125 7.890625 11.96875 8.15625 C 12.152344 8.421875 12.519531 8.488281 12.785156 8.304688 Z M 12.785156 8.304688 "/>
<path style=" stroke:none;fill-rule:nonzero;fill:rgb(100%,100%,100%);fill-opacity:1;" d="M 14.191406 9.8125 C 13.410156 9.945312 12.589844 10.394531 12.171875 10.652344 C 11.894531 10.820312 11.808594 11.183594 11.976562 11.460938 C 12.144531 11.738281 12.507812 11.824219 12.785156 11.65625 C 13.066406 11.484375 13.78125 11.074219 14.390625 10.972656 C 14.710938 10.917969 14.925781 10.617188 14.871094 10.296875 C 14.816406 9.976562 14.511719 9.757812 14.191406 9.8125 Z M 14.191406 9.8125 "/>
</g>
</svg>
