<?xml version="1.0" encoding="UTF-8"?>
<svg xmlns="http://www.w3.org/2000/svg" xmlns:xlink="http://www.w3.org/1999/xlink" width="20" height="20" viewBox="0 0 20 20" version="1.1">
<g id="surface1">
<path style=" stroke:none;fill-rule:nonzero;fill:rgb(100%,100%,100%);fill-opacity:1;" d="M 19.414062 4.726562 L 14.960938 4.726562 L 14.960938 1.25 C 14.960938 0.925781 14.699219 0.664062 14.375 0.664062 L 0.585938 0.664062 C 0.261719 0.664062 0 0.925781 0 1.25 L 0 16.40625 C 0 18.023438 1.3125 19.335938 2.929688 19.335938 L 17.070312 19.335938 C 18.6875 19.335938 20 18.023438 20 16.40625 L 20 5.3125 C 20 4.988281 19.738281 4.726562 19.414062 4.726562 Z M 2.929688 18.164062 C 1.960938 18.164062 1.171875 17.375 1.171875 16.40625 L 1.171875 1.835938 L 13.789062 1.835938 C 13.789062 17.324219 13.78125 16.460938 13.800781 16.683594 C 13.851562 17.226562 14.054688 17.738281 14.375 18.164062 Z M 18.828125 16.40625 C 18.828125 17.375 18.039062 18.164062 17.070312 18.164062 C 16.9375 18.164062 16.847656 18.164062 16.71875 18.164062 C 15.75 18.164062 14.960938 17.375 14.960938 16.40625 L 14.960938 5.898438 L 18.828125 5.898438 Z M 18.828125 16.40625 "/>
<path style=" stroke:none;fill-rule:nonzero;fill:rgb(100%,100%,100%);fill-opacity:1;" d="M 11.875 3.476562 L 3.125 3.476562 C 2.800781 3.476562 2.539062 3.738281 2.539062 4.0625 C 2.539062 4.386719 2.800781 4.648438 3.125 4.648438 L 11.875 4.648438 C 12.199219 4.648438 12.460938 4.386719 12.460938 4.0625 C 12.460938 3.738281 12.199219 3.476562 11.875 3.476562 Z M 11.875 3.476562 "/>
<path style=" stroke:none;fill-rule:nonzero;fill:rgb(100%,100%,100%);fill-opacity:1;" d="M 11.875 5.976562 L 3.125 5.976562 C 2.800781 5.976562 2.539062 6.238281 2.539062 6.5625 C 2.539062 6.886719 2.800781 7.148438 3.125 7.148438 L 11.875 7.148438 C 12.199219 7.148438 12.460938 6.886719 12.460938 6.5625 C 12.460938 6.238281 12.199219 5.976562 11.875 5.976562 Z M 11.875 5.976562 "/>
<path style=" stroke:none;fill-rule:nonzero;fill:rgb(100%,100%,100%);fill-opacity:1;" d="M 11.875 15.351562 L 3.125 15.351562 C 2.800781 15.351562 2.539062 15.613281 2.539062 15.9375 C 2.539062 16.261719 2.800781 16.523438 3.125 16.523438 L 11.875 16.523438 C 12.199219 16.523438 12.460938 16.261719 12.460938 15.9375 C 12.460938 15.613281 12.199219 15.351562 11.875 15.351562 Z M 11.875 15.351562 "/>
<path style=" stroke:none;fill-rule:nonzero;fill:rgb(100%,100%,100%);fill-opacity:1;" d="M 11.875 8.476562 L 7.5 8.476562 C 7.175781 8.476562 6.914062 8.738281 6.914062 9.0625 L 6.914062 13.4375 C 6.914062 13.761719 7.175781 14.023438 7.5 14.023438 L 11.875 14.023438 C 12.199219 14.023438 12.460938 13.761719 12.460938 13.4375 L 12.460938 9.0625 C 12.460938 8.738281 12.199219 8.476562 11.875 8.476562 Z M 11.289062 12.851562 L 8.085938 12.851562 L 8.085938 9.648438 L 11.289062 9.648438 Z M 11.289062 12.851562 "/>
<path style=" stroke:none;fill-rule:nonzero;fill:rgb(100%,100%,100%);fill-opacity:1;" d="M 3.125 10.585938 L 5 10.585938 C 5.324219 10.585938 5.585938 10.324219 5.585938 10 C 5.585938 9.675781 5.324219 9.414062 5 9.414062 L 3.125 9.414062 C 2.800781 9.414062 2.539062 9.675781 2.539062 10 C 2.539062 10.324219 2.800781 10.585938 3.125 10.585938 Z M 3.125 10.585938 "/>
<path style=" stroke:none;fill-rule:nonzero;fill:rgb(100%,100%,100%);fill-opacity:1;" d="M 3.125 13.085938 L 5 13.085938 C 5.324219 13.085938 5.585938 12.824219 5.585938 12.5 C 5.585938 12.175781 5.324219 11.914062 5 11.914062 L 3.125 11.914062 C 2.800781 11.914062 2.539062 12.175781 2.539062 12.5 C 2.539062 12.824219 2.800781 13.085938 3.125 13.085938 Z M 3.125 13.085938 "/>
</g>
</svg>
