<svg width="39" height="49" viewBox="0 0 45 55" fill="none" xmlns="http://www.w3.org/2000/svg">
<path d="M3.01304 0.935059V0.435059H2.80676L2.66048 0.580509L3.01304 0.935059ZM2.86676 1.08051L2.51421 0.725959L2.51421 0.725959L2.86676 1.08051ZM1.0825 2.85473L0.72995 2.50018H0.72995L1.0825 2.85473ZM0.935059 3.00134L0.582504 2.64679L0.435059 2.79341V3.00134H0.935059ZM0.935059 45.9984H0.435059V46.2063L0.582502 46.353L0.935059 45.9984ZM1.0825 46.145L0.729948 46.4996L0.72995 46.4996L1.0825 46.145ZM2.86676 47.9192L3.21932 47.5647H3.21932L2.86676 47.9192ZM3.01304 48.0647L2.66048 48.4192L2.80676 48.5647H3.01304V48.0647ZM36.5364 48.0647V48.5647H36.8446L36.9831 48.2893L36.5364 48.0647ZM36.6748 47.7893L36.2281 47.5647L36.6748 47.7893ZM37.567 46.0151L38.0137 46.2397L38.0137 46.2397L37.567 46.0151ZM37.6202 45.9091L38.067 46.1337L38.1202 46.0277V45.9091H37.6202ZM37.6202 10.0982H38.1202V9.89027L37.9728 9.74366L37.6202 10.0982ZM37.4728 9.95159L37.8254 9.59704L37.4728 9.95159ZM28.5515 1.08051L28.1989 1.43506L28.1989 1.43506L28.5515 1.08051ZM28.4052 0.935059L28.7578 0.58051L28.6115 0.435059H28.4052V0.935059ZM3.4256 1.93506V1.43506H3.21932L3.07304 1.58051L3.4256 1.93506ZM1.93506 3.41721L1.5825 3.06266L1.43506 3.20928V3.41721H1.93506ZM27.4814 1.93506H27.9814V1.43506H27.4814V1.93506ZM27.4814 9.4755H26.9814V9.68261L27.1278 9.82905L27.4814 9.4755ZM28.9334 10.9275L28.5798 11.2811V11.2811L28.9334 10.9275ZM29.0798 11.0739L28.7263 11.4275L28.8727 11.5739H29.0798V11.0739ZM36.6202 11.0739H37.1202V10.5739H36.6202V11.0739ZM36.6202 45.6718L37.067 45.8965L37.1202 45.7905V45.6718H36.6202ZM35.9199 47.0647V47.5647H36.2281L36.3666 47.2893L35.9199 47.0647ZM3.4256 47.0647L3.07304 47.4192L3.21932 47.5647H3.4256V47.0647ZM1.93506 45.5825H1.43506V45.7905L1.5825 45.9371L1.93506 45.5825ZM36.1776 10.0739V10.5739H37.3896L36.5302 9.7194L36.1776 10.0739ZM28.4814 2.421L28.8339 2.06645L27.9814 1.21869V2.421H28.4814ZM28.4814 9.06129H27.9814V9.26839L28.1278 9.41484L28.4814 9.06129ZM29.494 10.0739L29.1405 10.4275L29.2869 10.5739H29.494V10.0739ZM3.01304 1.43506H3.21932V0.435059H3.01304V1.43506ZM3.21932 1.43506L3.36559 1.28961L2.66048 0.580509L2.51421 0.725959L3.21932 1.43506ZM1.43506 3.20928L3.21932 1.43506L2.51421 0.725959L0.72995 2.50018L1.43506 3.20928ZM1.28761 3.35589L1.43506 3.20928L0.72995 2.50018L0.582504 2.64679L1.28761 3.35589ZM1.43506 3.20928V3.00134H0.435059V3.20928H1.43506ZM1.43506 45.7905V3.20928H0.435059V45.7905H1.43506ZM1.43506 45.9984V45.7905H0.435059V45.9984H1.43506ZM1.43506 45.7905L1.28762 45.6439L0.582502 46.353L0.729948 46.4996L1.43506 45.7905ZM3.21932 47.5647L1.43506 45.7905L0.72995 46.4996L2.51421 48.2738L3.21932 47.5647ZM3.36559 47.7101L3.21932 47.5647L2.51421 48.2738L2.66048 48.4192L3.36559 47.7101ZM3.21932 47.5647H3.01304V48.5647H3.21932V47.5647ZM36.2281 47.5647H3.21932V48.5647H36.2281V47.5647ZM36.5364 47.5647H36.2281V48.5647H36.5364V47.5647ZM36.2281 47.5647L36.0896 47.8401L36.9831 48.2893L37.1215 48.0139L36.2281 47.5647ZM37.1202 45.7905L36.2281 47.5647L37.1215 48.0139L38.0137 46.2397L37.1202 45.7905ZM37.1735 45.6845L37.1202 45.7905L38.0137 46.2397L38.067 46.1337L37.1735 45.6845ZM37.1202 45.7905V45.9091H38.1202V45.7905H37.1202ZM37.1202 10.3061V45.7905H38.1202V10.3061H37.1202ZM37.1202 10.0982V10.3061H38.1202V10.0982H37.1202ZM37.1202 10.3061L37.2677 10.4528L37.9728 9.74366L37.8254 9.59704L37.1202 10.3061ZM28.1989 1.43506L37.1202 10.3061L37.8254 9.59704L28.9041 0.725959L28.1989 1.43506ZM28.0527 1.28961L28.1989 1.43506L28.9041 0.72596L28.7578 0.58051L28.0527 1.28961ZM28.1989 1.43506H28.4052V0.435059H28.1989V1.43506ZM3.21932 1.43506H28.1989V0.435059H3.21932V1.43506ZM3.07304 1.58051L1.5825 3.06266L2.28761 3.77176L3.77815 2.28961L3.07304 1.58051ZM27.4814 1.43506H3.4256V2.43506H27.4814V1.43506ZM27.9814 9.26839V1.93506H26.9814V9.26839H27.9814ZM27.9814 9.4755V9.26839H26.9814V9.4755H27.9814ZM27.9814 9.26839L27.8349 9.12195L27.1278 9.82905L27.2743 9.9755L27.9814 9.26839ZM29.2869 10.5739L27.9814 9.26839L27.2743 9.9755L28.5798 11.2811L29.2869 10.5739ZM29.4334 10.7204L29.2869 10.5739L28.5798 11.2811L28.7263 11.4275L29.4334 10.7204ZM29.2869 10.5739H29.0798V11.5739H29.2869V10.5739ZM36.6202 10.5739H29.2869V11.5739H36.6202V10.5739ZM37.1202 45.6718V11.0739H36.1202V45.6718H37.1202ZM36.3666 47.2893L37.067 45.8965L36.1735 45.4472L35.4732 46.8401L36.3666 47.2893ZM3.4256 47.5647H35.9199V46.5647H3.4256V47.5647ZM1.5825 45.9371L3.07304 47.4192L3.77815 46.7101L2.28761 45.228L1.5825 45.9371ZM1.43506 3.41721V45.5825H2.43506V3.41721H1.43506ZM36.5302 9.7194L28.8339 2.06645L28.1288 2.77555L35.8251 10.4285L36.5302 9.7194ZM27.9814 2.421V9.06129H28.9814V2.421H27.9814ZM28.1278 9.41484L29.1405 10.4275L29.8476 9.7204L28.8349 8.70773L28.1278 9.41484ZM29.494 10.5739H36.1776V9.57395H29.494V10.5739Z" fill="#777777"/>
<line x1="7.52759" y1="16.9722" x2="31.0276" y2="16.9722" stroke="#777777" stroke-width="2"/>
<line x1="7.52759" y1="23.9351" x2="31.0276" y2="23.9351" stroke="#777777" stroke-width="2"/>
<line x1="7.52759" y1="30.8979" x2="31.0276" y2="30.8979" stroke="#777777" stroke-width="2"/>
<line x1="7.52759" y1="38.7314" x2="31.0276" y2="38.7314" stroke="#777777" stroke-width="2"/>
</svg>
