<svg width="34" height="34" viewBox="0 0 34 34" fill="none" xmlns="http://www.w3.org/2000/svg">
<g clip-path="url(#clip0)">
<path d="M16.7577 16.3779C19.0078 16.3779 20.9561 15.5709 22.548 13.9787C24.14 12.3868 24.947 10.439 24.947 8.18869C24.947 5.93919 24.14 3.9911 22.5478 2.39866C20.9556 0.806988 19.0075 0 16.7577 0C14.5074 0 12.5596 0.806988 10.9677 2.39892C9.37573 3.99084 8.56848 5.93893 8.56848 8.18869C8.56848 10.439 9.37573 12.3871 10.9679 13.979C12.5601 15.5706 14.5082 16.3779 16.7577 16.3779Z" fill="#71BA75"/>
<path d="M31.0867 26.1442C31.0408 25.4817 30.9479 24.759 30.8112 23.9959C30.6732 23.227 30.4955 22.5002 30.2828 21.8359C30.0631 21.1493 29.7643 20.4712 29.3949 19.8214C29.0115 19.147 28.5612 18.5597 28.0559 18.0764C27.5275 17.5709 26.8805 17.1644 26.1324 16.8679C25.3869 16.573 24.5607 16.4235 23.6769 16.4235C23.3299 16.4235 22.9942 16.5659 22.346 16.988C21.947 17.2482 21.4803 17.5491 20.9595 17.8819C20.5141 18.1657 19.9107 18.4315 19.1655 18.6723C18.4384 18.9075 17.7001 19.0269 16.9715 19.0269C16.2428 19.0269 15.5048 18.9075 14.7769 18.6723C14.0325 18.4318 13.4291 18.1659 12.9842 17.8821C12.4683 17.5524 12.0014 17.2515 11.5965 16.9877C10.949 16.5657 10.6131 16.4233 10.266 16.4233C9.38196 16.4233 8.55603 16.573 7.81078 16.8681C7.06319 17.1641 6.41599 17.5706 5.88707 18.0767C5.38202 18.5602 4.93144 19.1472 4.54857 19.8214C4.17944 20.4712 3.88062 21.149 3.66064 21.8361C3.4482 22.5005 3.27051 23.227 3.13251 23.9959C2.9958 24.758 2.90294 25.4809 2.85703 26.145C2.81189 26.7956 2.78906 27.4708 2.78906 28.1528C2.78906 29.9276 3.35326 31.3644 4.46582 32.424C5.56464 33.4696 7.01857 34.0001 8.78664 34.0001H25.1579C26.9259 34.0001 28.3793 33.4699 29.4784 32.424C30.5912 31.3651 31.1554 29.9281 31.1554 28.1525C31.1552 27.4674 31.1321 26.7917 31.0867 26.1442Z" fill="#71BA75"/>
</g>
<defs>
<clipPath id="clip0">
<rect width="34" height="34" fill="white"/>
</clipPath>
</defs>
</svg>
