<svg width="22" height="22" viewBox="0 0 22 22" fill="none" xmlns="http://www.w3.org/2000/svg">
<path d="M18.8832 2.65835C18.6848 2.54298 18.4398 2.54298 18.2415 2.65835C17.4734 3.08451 16.6083 3.3055 15.7299 3.3C14.4455 3.3284 13.2036 2.83959 12.2832 1.94335C11.2207 0.903289 9.78408 0.334984 8.29758 0.366695C7.10042 0.35634 5.92995 0.720414 4.94992 1.40804V1.1C4.94992 0.492508 4.45746 0 3.84992 0C3.24239 0 2.74992 0.492465 2.74992 1.1V20.9C2.74992 21.5075 3.24239 22 3.84992 22C4.45742 22 4.94992 21.5075 4.94992 20.9V11.3667C5.07144 11.3553 5.1872 11.3095 5.28358 11.2347C6.15593 10.5922 7.21429 10.2523 8.29758 10.2667C9.58432 10.2371 10.8289 10.7259 11.7516 11.6233C12.8121 12.6619 14.2459 13.2301 15.7299 13.2C16.8673 13.2132 17.9828 12.8877 18.9346 12.265C19.1382 12.1238 19.2569 11.8893 19.2499 11.6416V3.3C19.2522 3.03566 19.1121 2.79052 18.8832 2.65835Z" fill="#5A5A5A"/>
</svg>
