<svg width="34" height="34" viewBox="0 0 34 34" fill="none" xmlns="http://www.w3.org/2000/svg">
<path d="M19.7994 13.5187L21.7954 11.6199L19.0144 11.225C18.6926 11.1792 18.4124 10.9789 18.2656 10.688L17 8.18433L15.7345 10.688C15.5876 10.9789 15.3074 11.1792 14.9855 11.225L12.2045 11.6199L14.2006 13.5187C14.4418 13.7492 14.5527 14.0848 14.4953 14.4126L14.0186 17.1235L16.5447 15.8269C16.8307 15.681 17.1692 15.681 17.4551 15.8269L19.9812 17.1235L19.5046 14.4126C19.4473 14.0847 19.5582 13.7492 19.7994 13.5187Z" fill="black"/>
<path d="M17 0C9.86033 0 4.05138 5.80895 4.05138 12.9486C4.05138 20.0883 9.86033 25.8972 17 25.8972C24.1397 25.8972 29.9486 20.0883 29.9486 12.9486C29.9486 5.80895 24.1397 0 17 0ZM24.6591 11.6442L21.56 14.5934L22.2905 18.7527C22.4318 19.5601 21.5844 20.19 20.8538 19.811L17 17.8326L13.1462 19.8111C12.4177 20.1852 11.5672 19.5661 11.7095 18.7528L12.44 14.5935L9.34097 11.6443C8.73859 11.0695 9.06657 10.0523 9.88762 9.93617L14.1909 9.3253L16.111 5.52693C16.4496 4.85576 17.5506 4.85576 17.8891 5.52693L19.8092 9.3253L24.1125 9.93617C24.9334 10.0522 25.2614 11.0695 24.6591 11.6442Z" fill="black"/>
<path d="M17 27.8894C14.4821 27.8894 12.111 27.2573 10.0277 26.1528V33.0024C10.0277 33.7993 10.9198 34.2715 11.5762 33.8311L17 30.2156L22.4238 33.8312C23.0833 34.2709 23.9723 33.7983 23.9723 33.0025V26.1528C21.8889 27.2574 19.5179 27.8894 17 27.8894Z" fill="black"/>
</svg>
