<svg width="22" height="22" viewBox="0 0 22 22" fill="none" xmlns="http://www.w3.org/2000/svg">
<g clip-path="url(#clip0)">
<path d="M18.15 13.2C16.9134 13.2 15.823 13.7965 15.1181 14.7057L7.67048 11.8412C7.67801 11.7434 7.69998 11.6497 7.69998 11.5501C7.69998 11.365 7.67069 11.1878 7.64532 11.0097L15.277 7.48698C15.9831 8.28553 17.003 8.80007 18.1499 8.80007C20.2726 8.80007 22 7.07273 22 4.95006C22 2.82739 20.2726 1.10004 18.1499 1.10004C16.0273 1.10004 14.3 2.82734 14.3 4.95001C14.3 5.13506 14.3293 5.31223 14.3546 5.49033L6.72292 9.01308C6.01688 8.21453 4.99697 7.69999 3.85001 7.69999C1.72734 7.69999 0 9.42733 0 11.55C0 13.6727 1.72734 15.4 3.85001 15.4C5.08664 15.4 6.17703 14.8035 6.88194 13.8943L14.3295 16.7588C14.322 16.8566 14.3 16.9503 14.3 17.05C14.3 19.1726 16.0274 20.9 18.15 20.9C20.2727 20.9 22.0001 19.1726 22.0001 17.05C22 14.9273 20.2727 13.2 18.15 13.2Z" fill="#5A5A5A"/>
</g>
<defs>
<clipPath id="clip0">
<rect width="22" height="22" fill="white"/>
</clipPath>
</defs>
</svg>
