<svg width="27" height="35" viewBox="0 0 27 35" fill="none" xmlns="http://www.w3.org/2000/svg">
<path d="M2.5152 1V0.5H2.30891L2.16264 0.64545L2.5152 1ZM2.36892 1.14545L2.72148 1.5V1.5L2.36892 1.14545ZM1.14745 2.36005L1.5 2.7146H1.5L1.14745 2.36005ZM1 2.50667L0.647446 2.15212L0.5 2.29873V2.50667H1ZM1 32.073H0.5V32.2809L0.647446 32.4275L1 32.073ZM1.14745 32.2196L0.794892 32.5741H0.794892L1.14745 32.2196ZM2.36892 33.4342L2.72148 33.0796H2.72148L2.36892 33.4342ZM2.5152 33.5796L2.16264 33.9342L2.30891 34.0796H2.5152V33.5796ZM25.627 33.5796V34.0796H25.9353L26.0737 33.8043L25.627 33.5796ZM25.7655 33.3043L26.2122 33.5289L26.2122 33.5289L25.7655 33.3043ZM26.3762 32.0896L25.9295 31.865L25.9295 31.865L26.3762 32.0896ZM26.4295 31.9837L26.8762 32.2083L26.9295 32.1023V31.9837H26.4295ZM26.4295 7.36507H26.9295V7.15714L26.7821 7.01052L26.4295 7.36507ZM26.2821 7.21846L25.9295 7.57301L25.9295 7.57301L26.2821 7.21846ZM20.1747 1.14545L20.5273 0.790901L20.5273 0.790899L20.1747 1.14545ZM20.0284 1L20.381 0.645449L20.2347 0.5H20.0284V1ZM2.92776 2V1.5H2.72148L2.5752 1.64545L2.92776 2ZM2 2.92254L1.64745 2.56799L1.5 2.7146V2.92254H2ZM19.1731 2H19.6731V1.5H19.1731V2ZM19.1731 7.06969H18.6731V7.27679L18.8195 7.42324L19.1731 7.06969ZM19.3195 7.21613L18.9659 7.56969V7.56969L19.3195 7.21613ZM20.2133 8.1099L19.8597 8.46345L19.8597 8.46345L20.2133 8.1099ZM20.3597 8.25634L20.0062 8.6099L20.1526 8.75634H20.3597V8.25634ZM25.4295 8.25634H25.9295V7.75634H25.4295V8.25634ZM25.4295 31.7464L25.8762 31.971L25.9295 31.865V31.7464H25.4295ZM25.0106 32.5796V33.0796H25.3188L25.4573 32.8043L25.0106 32.5796ZM2.92776 32.5796L2.5752 32.9342L2.72148 33.0796H2.92776V32.5796ZM2 31.6571H1.5V31.865L1.64745 32.0116L2 31.6571ZM24.902 7.25634V7.75634H26.1139L25.2545 6.90179L24.902 7.25634ZM20.1731 2.55405L20.5256 2.1995L19.6731 1.35175V2.55405H20.1731ZM20.1731 6.65547H19.6731V6.86258L19.8195 7.00903L20.1731 6.65547ZM20.7739 7.25634L20.4204 7.6099L20.5668 7.75634H20.7739V7.25634ZM2.5152 1.5H2.72148V0.5H2.5152V1.5ZM2.72148 1.5L2.86775 1.35455L2.16264 0.64545L2.01637 0.790901L2.72148 1.5ZM1.5 2.7146L2.72148 1.5L2.01637 0.7909L0.794892 2.0055L1.5 2.7146ZM1.35255 2.86122L1.5 2.7146L0.794892 2.0055L0.647446 2.15212L1.35255 2.86122ZM1.5 2.7146V2.50667H0.5V2.7146H1.5ZM1.5 31.865V2.7146H0.5V31.865H1.5ZM1.5 32.073V31.865H0.5V32.073H1.5ZM1.5 31.865L1.35255 31.7184L0.647446 32.4275L0.794892 32.5741L1.5 31.865ZM2.72148 33.0796L1.5 31.865L0.794892 32.5741L2.01637 33.7887L2.72148 33.0796ZM2.86775 33.2251L2.72148 33.0796L2.01637 33.7887L2.16264 33.9342L2.86775 33.2251ZM2.72148 33.0796H2.5152V34.0796H2.72148V33.0796ZM25.3188 33.0796H2.72148V34.0796H25.3188V33.0796ZM25.627 33.0796H25.3188V34.0796H25.627V33.0796ZM25.3188 33.0796L25.1803 33.355L26.0737 33.8043L26.2122 33.5289L25.3188 33.0796ZM25.9295 31.865L25.3188 33.0796L26.2122 33.5289L26.8229 32.3143L25.9295 31.865ZM25.9828 31.759L25.9295 31.865L26.8229 32.3143L26.8762 32.2083L25.9828 31.759ZM25.9295 31.865V31.9837H26.9295V31.865H25.9295ZM25.9295 7.57301V31.865H26.9295V7.57301H25.9295ZM25.9295 7.36507V7.57301H26.9295V7.36507H25.9295ZM25.9295 7.57301L26.077 7.71962L26.7821 7.01052L26.6346 6.8639L25.9295 7.57301ZM19.8221 1.5L25.9295 7.57301L26.6346 6.86391L20.5273 0.790901L19.8221 1.5ZM19.6759 1.35455L19.8221 1.5L20.5273 0.790899L20.381 0.645449L19.6759 1.35455ZM19.8221 1.5H20.0284V0.5H19.8221V1.5ZM2.72148 1.5H19.8221V0.5H2.72148V1.5ZM2.5752 1.64545L1.64745 2.56799L2.35255 3.27709L3.28031 2.35455L2.5752 1.64545ZM19.1731 1.5H2.92776V2.5H19.1731V1.5ZM19.6731 6.86258V2H18.6731V6.86258H19.6731ZM19.6731 7.06969V6.86258H18.6731V7.06969H19.6731ZM19.6731 6.86258L19.5266 6.71613L18.8195 7.42324L18.9659 7.56969L19.6731 6.86258ZM20.5668 7.75634L19.6731 6.86258L18.9659 7.56969L19.8597 8.46345L20.5668 7.75634ZM20.7133 7.90279L20.5668 7.75634L19.8597 8.46345L20.0062 8.6099L20.7133 7.90279ZM20.5668 7.75634H20.3597V8.75634H20.5668V7.75634ZM25.4295 7.75634H20.5668V8.75634H25.4295V7.75634ZM25.9295 31.7464V8.25634H24.9295V31.7464H25.9295ZM25.4573 32.8043L25.8762 31.971L24.9828 31.5218L24.5638 32.355L25.4573 32.8043ZM2.92776 33.0796H25.0106V32.0796H2.92776V33.0796ZM1.64745 32.0116L2.5752 32.9342L3.28031 32.2251L2.35255 31.3025L1.64745 32.0116ZM1.5 2.92254V31.6571H2.5V2.92254H1.5ZM25.2545 6.90179L20.5256 2.1995L19.8205 2.9086L24.5494 7.61089L25.2545 6.90179ZM19.6731 2.55405V6.65547H20.6731V2.55405H19.6731ZM19.8195 7.00903L20.4204 7.6099L21.1275 6.90279L20.5266 6.30192L19.8195 7.00903ZM20.7739 7.75634H24.902V6.75634H20.7739V7.75634Z" fill="#777777"/>
<line x1="5.6709" y1="11.821" x2="21.7586" y2="11.821" stroke="#777777" stroke-width="2"/>
<line x1="5.6709" y1="16.5876" x2="21.7586" y2="16.5876" stroke="#777777" stroke-width="2"/>
<line x1="5.6709" y1="21.3545" x2="21.7586" y2="21.3545" stroke="#777777" stroke-width="2"/>
<line x1="5.6709" y1="26.717" x2="21.7586" y2="26.717" stroke="#777777" stroke-width="2"/>
</svg>
