<svg width="100" height="129" viewBox="0 0 100 129" fill="none" xmlns="http://www.w3.org/2000/svg">
<path d="M6.16058 1V0.5H5.9543L5.80803 0.64545L6.16058 1ZM6.01431 1.14545L5.66176 0.7909L5.66176 0.7909L6.01431 1.14545ZM1.14745 5.98492L0.794892 5.63037H0.794892L1.14745 5.98492ZM1 6.13154L0.647446 5.77699L0.5 5.9236V6.13154H1ZM1 122.695H0.5V122.903L0.647448 123.049L1 122.695ZM1.14745 122.841L1.5 122.487H1.5L1.14745 122.841ZM6.01431 127.681L6.36687 127.326L6.36686 127.326L6.01431 127.681ZM6.16058 127.826L5.80802 128.181L5.9543 128.326H6.16058V127.826ZM96.7121 127.826V128.326H97.0203L97.1588 128.051L96.7121 127.826ZM96.8505 127.551L96.4038 127.326V127.326L96.8505 127.551ZM99.284 122.711L99.7307 122.936V122.936L99.284 122.711ZM99.3373 122.605L99.784 122.83L99.8373 122.724V122.605H99.3373ZM99.3373 25.4894H99.8373V25.2815L99.6898 25.1349L99.3373 25.4894ZM99.1898 25.3428L99.5424 24.9883L99.1898 25.3428ZM74.8555 1.14545L74.503 1.5V1.5L74.8555 1.14545ZM74.7092 1L75.0618 0.645454L74.9155 0.5H74.7092V1ZM6.57314 2V1.5H6.36686L6.22059 1.64545L6.57314 2ZM2 6.5474L1.64745 6.19285L1.5 6.33947V6.5474H2ZM73.4093 2H73.9093V1.5H73.4093V2ZM73.4093 23.0738H72.9093V23.2809L73.0558 23.4274L73.4093 23.0738ZM73.5558 23.2203L73.9093 22.8667L73.5558 23.2203ZM77.1169 26.7814L76.7634 27.1349L77.1169 26.7814ZM77.2634 26.9278L76.9098 27.2814L77.0563 27.4278H77.2634V26.9278ZM97.6501 26.9278V27.4278H98.1501V26.9278H97.6501ZM97.6501 25.9278H98.1501V25.4278H97.6501V25.9278ZM77.6776 25.9278L77.324 26.2814L77.4705 26.4278H77.6776V25.9278ZM74.4093 22.6596H73.9093V22.8667L74.0558 23.0132L74.4093 22.6596ZM74.4093 2.11204L74.7619 1.75749L73.9093 0.909739V2.11204H74.4093ZM98.3373 25.9053H98.8373V25.6974L98.6898 25.5507L98.3373 25.9053ZM98.3373 122.368L98.784 122.593L98.8373 122.487V122.368H98.3373ZM96.0956 126.826V127.326H96.4038L96.5423 127.051L96.0956 126.826ZM6.57315 126.826L6.22059 127.181L6.36687 127.326H6.57315V126.826ZM2 122.279H1.5V122.487L1.64745 122.633L2 122.279ZM6.16058 1.5H6.36686V0.5H6.16058V1.5ZM6.36686 1.5L6.51314 1.35455L5.80803 0.64545L5.66176 0.7909L6.36686 1.5ZM1.5 6.33947L6.36686 1.5L5.66176 0.7909L0.794892 5.63037L1.5 6.33947ZM1.35255 6.48609L1.5 6.33947L0.794892 5.63037L0.647446 5.77699L1.35255 6.48609ZM1.5 6.33947V6.13154H0.5V6.33947H1.5ZM1.5 122.487V6.33947H0.5V122.487H1.5ZM1.5 122.695V122.487H0.5V122.695H1.5ZM1.5 122.487L1.35255 122.34L0.647448 123.049L0.794894 123.196L1.5 122.487ZM6.36686 127.326L1.5 122.487L0.794892 123.196L5.66176 128.035L6.36686 127.326ZM6.51314 127.472L6.36687 127.326L5.66175 128.035L5.80802 128.181L6.51314 127.472ZM6.36686 127.326H6.16058V128.326H6.36686V127.326ZM96.4038 127.326H6.36686V128.326H96.4038V127.326ZM96.7121 127.326H96.4038V128.326H96.7121V127.326ZM96.4038 127.326L96.2654 127.602L97.1588 128.051L97.2973 127.775L96.4038 127.326ZM98.8373 122.487L96.4038 127.326L97.2973 127.775L99.7307 122.936L98.8373 122.487ZM98.8906 122.381L98.8373 122.487L99.7307 122.936L99.784 122.83L98.8906 122.381ZM98.8373 122.487V122.605H99.8373V122.487H98.8373ZM98.8373 25.6974V122.487H99.8373V25.6974H98.8373ZM98.8373 25.4894V25.6974H99.8373V25.4894H98.8373ZM98.8373 25.6974L98.9847 25.844L99.6898 25.1349L99.5424 24.9883L98.8373 25.6974ZM74.503 1.5L98.8373 25.6974L99.5424 24.9883L75.2081 0.7909L74.503 1.5ZM74.3567 1.35455L74.503 1.5L75.2081 0.790904L75.0618 0.645454L74.3567 1.35455ZM74.503 1.5H74.7092V0.5H74.503V1.5ZM6.36686 1.5H74.503V0.5H6.36686V1.5ZM6.22059 1.64545L1.64745 6.19285L2.35255 6.90195L6.9257 2.35455L6.22059 1.64545ZM73.4093 1.5H6.57314V2.5H73.4093V1.5ZM73.9093 22.8667V2H72.9093V22.8667H73.9093ZM73.9093 23.0738V22.8667H72.9093V23.0738H73.9093ZM73.9093 22.8667L73.7629 22.7203L73.0558 23.4274L73.2022 23.5738L73.9093 22.8667ZM77.4705 26.4278L73.9093 22.8667L73.2022 23.5738L76.7634 27.1349L77.4705 26.4278ZM77.6169 26.5743L77.4705 26.4278L76.7634 27.1349L76.9098 27.2814L77.6169 26.5743ZM77.4705 26.4278H77.2634V27.4278H77.4705V26.4278ZM97.6501 26.4278H77.4705V27.4278H97.6501V26.4278ZM97.1501 25.9278V26.9278H98.1501V25.9278H97.1501ZM77.6776 26.4278H97.6501V25.4278H77.6776V26.4278ZM74.0558 23.0132L77.324 26.2814L78.0311 25.5743L74.7629 22.3061L74.0558 23.0132ZM73.9093 2.11204V22.6596H74.9093V2.11204H73.9093ZM98.6898 25.5507L74.7619 1.75749L74.0568 2.46659L97.9847 26.2598L98.6898 25.5507ZM98.8373 122.368V25.9053H97.8373V122.368H98.8373ZM96.5423 127.051L98.784 122.593L97.8906 122.144L95.6489 126.602L96.5423 127.051ZM6.57315 127.326H96.0956V126.326H6.57315V127.326ZM1.64745 122.633L6.22059 127.181L6.9257 126.472L2.35255 121.924L1.64745 122.633ZM1.5 6.5474V122.279H2.5V6.5474H1.5Z" fill="#777777"/>
<line x1="18.1187" y1="45.6077" x2="82.2188" y2="45.6077" stroke="#777777" stroke-width="2"/>
<line x1="18.1187" y1="64.6001" x2="82.2188" y2="64.6001" stroke="#777777" stroke-width="2"/>
<line x1="18.1187" y1="83.5925" x2="82.2188" y2="83.5925" stroke="#777777" stroke-width="2"/>
<line x1="18.1187" y1="104.96" x2="82.2188" y2="104.96" stroke="#777777" stroke-width="2"/>
</svg>
