<svg width="25" height="25" viewBox="0 0 25 25" fill="none" xmlns="http://www.w3.org/2000/svg">
<g clip-path="url(#clip0)">
<path d="M12.5 0C19.4036 0 25.0001 5.59647 25.0001 12.5C25.0001 19.4036 19.4036 25.0001 12.5 25.0001C5.59647 25.0001 0 19.4036 0 12.5C0 5.59647 5.59647 0 12.5 0Z" fill="#F4B844"/>
<path d="M12.5 21.9199C17.7025 21.9199 21.9199 17.7025 21.9199 12.5C21.9199 7.29761 17.7025 3.0802 12.5 3.0802C7.29761 3.0802 3.0802 7.29761 3.0802 12.5C3.0802 17.7025 7.29761 21.9199 12.5 21.9199Z" fill="#FEDB41"/>
<path d="M12.5 11.573C11.6081 11.573 10.8851 10.85 10.8851 9.95819C10.8851 9.06635 11.6081 8.34337 12.5 8.34337C13.3918 8.34337 14.1148 9.06635 14.1148 9.95819C14.1148 10.2885 14.3825 10.5563 14.7129 10.5563C15.0432 10.5563 15.3109 10.2885 15.3109 9.95819C15.2991 8.6457 14.3805 7.5161 13.098 7.23689V6.51917C13.098 6.18884 12.8303 5.92108 12.5 5.92108C12.1696 5.92108 11.9019 6.18884 11.9019 6.51917V7.23689C10.398 7.62216 9.49115 9.1537 9.87648 10.6576C10.1859 11.8654 11.254 12.725 12.5 12.7692C13.3918 12.7692 14.1148 13.4922 14.1148 14.384C14.1148 15.2758 13.3918 15.9988 12.5 15.9988C11.6081 15.9988 10.8851 15.2758 10.8851 14.384C10.8851 14.0537 10.6174 13.7859 10.2871 13.7859C9.95673 13.7859 9.68896 14.0537 9.68896 14.384C9.68954 15.7006 10.6131 16.8363 11.9019 17.1053V18.1819C11.9019 18.5122 12.1696 18.7799 12.5 18.7799C12.8303 18.7799 13.098 18.5122 13.098 18.1819V17.1053C14.6019 16.72 15.5088 15.1885 15.1234 13.6846C14.814 12.4768 13.7459 11.6171 12.5 11.573Z" fill="#F4B844"/>
</g>
<defs>
<clipPath id="clip0">
<rect width="25" height="25" fill="white"/>
</clipPath>
</defs>
</svg>
