<svg width="20" height="20" viewBox="0 0 20 20" fill="none" xmlns="http://www.w3.org/2000/svg">
<path d="M10 14.1667C9.655 14.1667 9.375 13.8867 9.375 13.5417V0.625C9.375 0.279999 9.655 0 10 0C10.345 0 10.625 0.279999 10.625 0.625V13.5417C10.625 13.8867 10.345 14.1667 10 14.1667Z" fill="#504F4F"/>
<path d="M10.0001 14.1668C9.84006 14.1668 9.68015 14.1059 9.55838 13.9834L6.2251 10.6501C5.98096 10.406 5.98096 10.0102 6.2251 9.76587C6.46924 9.52173 6.86505 9.52173 7.10934 9.76587L10.0009 12.6576L12.8926 9.76587C13.1367 9.52173 13.5327 9.52173 13.7768 9.76587C14.021 10.0102 14.021 10.406 13.7768 10.6501L10.4434 13.9834C10.3201 14.1059 10.1602 14.1668 10.0001 14.1668Z" fill="#504F4F"/>
<path d="M17.7083 20H2.29172C1.02753 20 0 18.9724 0 17.7083V13.9583C0 13.6133 0.279999 13.3333 0.625 13.3333C0.970001 13.3333 1.25 13.6133 1.25 13.9583V17.7083C1.25 18.2824 1.71753 18.75 2.29172 18.75H17.7083C18.2825 18.75 18.75 18.2824 18.75 17.7083V13.9583C18.75 13.6133 19.03 13.3333 19.375 13.3333C19.72 13.3333 20 13.6133 20 13.9583V17.7083C20 18.9724 18.9725 20 17.7083 20Z" fill="#504F4F"/>
</svg>
