<svg width="22" height="22" viewBox="0 0 22 22" fill="none" xmlns="http://www.w3.org/2000/svg">
<path d="M0 8.25V19.25C0 20.0093 0.615578 20.625 1.375 20.625H5.5V6.875H1.375C0.615578 6.875 0 7.49058 0 8.25Z" fill="#5A5A5A"/>
<path d="M19.4608 8.24971H15.3989C15.0438 8.24971 14.8658 8.01272 14.8061 7.91066C14.7463 7.80929 14.6255 7.53872 14.7974 7.22854L16.2294 4.64974C16.5436 4.0851 16.5759 3.4211 16.3187 2.82826C16.0616 2.23475 15.554 1.80439 14.9263 1.64796L13.9165 1.39552C13.6708 1.33375 13.4103 1.4123 13.2391 1.60231L7.75653 7.69313C7.18787 8.32625 6.875 9.14266 6.875 9.99263V17.1872C6.875 19.0825 8.41717 20.6247 10.3125 20.6247L17.1519 20.624C18.6961 20.624 20.0597 19.5841 20.4672 18.0956L21.9349 11.3602C21.9778 11.1729 22 10.9809 22 10.7889C22 9.38904 20.8606 8.2497 19.4608 8.2497L19.4608 8.24971Z" fill="#5A5A5A"/>
</svg>
