<svg width="20" height="20" viewBox="0 0 25 25" fill="none" xmlns="http://www.w3.org/2000/svg">
<g clip-path="url(#clip0)">
<path d="M7.61709 10.347H5.93459C5.22772 10.347 4.5283 10.1117 3.96514 9.68435L1.76198 8.01259C0.737172 7.23497 0.336859 5.89767 0.765883 4.68486C1.17592 3.52572 2.27756 2.73708 3.50713 2.72243C4.70858 2.70818 5.3912 2.74615 5.41963 2.74779L5.3444 4.07017C5.33784 4.06982 4.6737 4.03329 3.52288 4.04689C2.84631 4.05493 2.24014 4.48884 2.01455 5.12661C1.7785 5.79388 1.99873 6.52966 2.5626 6.95751L4.76573 8.62927C5.09991 8.88286 5.51502 9.02251 5.93452 9.02251H7.61702V10.347H7.61709Z" fill="#FFD064"/>
<path d="M3.96531 8.98655L1.76215 7.31479C1.10898 6.81916 0.710036 6.09608 0.617262 5.32288C0.495075 6.34424 0.914879 7.36971 1.76215 8.0126L3.96531 9.68436C4.52843 10.1117 5.22789 10.347 5.93476 10.347H7.61726V9.6492H5.93476C5.22789 9.6492 4.52843 9.41385 3.96531 8.98655V8.98655Z" fill="#ECBE6B"/>
<path d="M12.3889 10.347H14.0714C14.7783 10.347 15.4777 10.1117 16.0409 9.68435L18.244 8.01259C19.2688 7.23497 19.6692 5.89767 19.2401 4.68486C18.8301 3.52572 17.7284 2.73708 16.4989 2.72243C15.2974 2.70818 14.6148 2.74615 14.5864 2.74779L14.6616 4.07017C14.6682 4.06982 15.3323 4.03329 16.4831 4.04689C17.1597 4.05493 17.7659 4.48884 17.9915 5.12661C18.2275 5.79388 18.0073 6.52966 17.4434 6.95751L15.2403 8.62927C14.9061 8.88286 14.491 9.02251 14.0715 9.02251H12.389V10.347H12.3889Z" fill="#FFD064"/>
<path d="M19.2402 4.68479C19.0482 4.14221 18.7047 3.68085 18.2675 3.34198C18.4561 3.5851 18.6086 3.85964 18.7146 4.15925C19.1436 5.37206 18.7433 6.70936 17.7185 7.48698L15.5153 9.15874C14.9522 9.58604 14.2527 9.82139 13.5459 9.82139H12.3889V10.3469H14.0714C14.7783 10.3469 15.4777 10.1116 16.0409 9.68428L18.244 8.01253C19.2689 7.23491 19.6692 5.8976 19.2402 4.68479V4.68479Z" fill="#ECBE6B"/>
<path d="M12.148 15.1982L11.3645 14.6044C11.0278 14.3492 10.8299 13.9511 10.8299 13.5286V10.8927H9.05538V13.5286C9.05538 13.9511 8.85756 14.3492 8.52085 14.6044L7.73733 15.1982C7.49311 15.3833 7.62401 15.7727 7.93042 15.7727H11.9549C12.2613 15.7727 12.3922 15.3833 12.148 15.1982Z" fill="#FFD064"/>
<path d="M12.1482 15.1982L11.3647 14.6044C11.028 14.3492 10.8302 13.9511 10.8302 13.5286V10.8927H9.9104V13.5286C9.9104 13.9511 10.1082 14.3492 10.4449 14.6044L11.2285 15.1982C11.4727 15.3833 11.3418 15.7727 11.0354 15.7727H11.9551C12.2615 15.7727 12.3924 15.3833 12.1482 15.1982Z" fill="#ECBE6B"/>
<path d="M14.9798 0.795654H5.02618C4.83548 0.795654 4.68091 0.950225 4.68091 1.14093V4.70519C4.68091 6.23124 5.10583 7.72714 5.9081 9.0253L6.82724 10.5126C8.26778 12.8435 11.6523 12.8595 13.1147 10.5421L14.057 9.04901C14.8854 7.73624 15.3251 6.21569 15.3251 4.66339V1.14093C15.3251 0.950264 15.1705 0.795654 14.9798 0.795654V0.795654Z" fill="#FFE07D"/>
<path d="M14.9798 0.795654H13.3844V2.72269C13.3844 4.27499 12.9447 5.79558 12.1162 7.10835L11.174 8.60148C10.1307 10.2546 8.10948 10.72 6.51343 10.0049L6.82722 10.5126C8.26776 12.8436 11.6523 12.8595 13.1147 10.5422L14.0569 9.04905C14.8854 7.73628 15.3251 6.21573 15.3251 4.66343V1.14093C15.3251 0.950264 15.1705 0.795654 14.9798 0.795654V0.795654Z" fill="#FFD064"/>
<path d="M10.0002 17.959C8.11072 17.959 6.27724 17.3949 4.69794 16.3277C3.16224 15.2898 1.93837 13.8302 1.15868 12.1066C1.09013 11.9552 1.1574 11.7769 1.30884 11.7084C1.46032 11.6398 1.63861 11.7071 1.70708 11.8585C3.2181 15.1988 6.47337 17.3571 10.0002 17.3571C13.527 17.3571 16.7822 15.1988 18.2932 11.8585C18.3617 11.7071 18.54 11.6398 18.6915 11.7084C18.8429 11.7769 18.9102 11.9552 18.8416 12.1066C18.0619 13.8302 16.8381 15.2899 15.3024 16.3277C13.7231 17.3949 11.8896 17.959 10.0002 17.959Z" fill="#0DC183"/>
<path d="M19.6317 11.4004C19.3029 12.1783 18.7425 12.6848 18.3799 12.5316C18.0173 12.3784 17.9898 11.6235 18.3184 10.8455C18.5566 10.2819 19.3413 9.38587 19.7556 8.9349C19.8451 8.83748 20.0072 8.90599 19.9998 9.03806C19.9653 9.64951 19.8698 10.8368 19.6317 11.4004V11.4004Z" fill="#AAD880"/>
<path d="M19.7557 8.9357C19.6408 9.06078 19.4973 9.22019 19.345 9.39718C19.2905 9.99699 19.1934 10.7119 19.0242 11.1122C18.7927 11.6603 18.4461 12.0732 18.1348 12.2161C18.1813 12.3709 18.2632 12.483 18.38 12.5324C18.7426 12.6856 19.303 12.1791 19.6317 11.4012C19.8698 10.8375 19.9653 9.65031 19.9998 9.03886C20.0073 8.90675 19.8452 8.83828 19.7557 8.9357V8.9357Z" fill="#80CB8E"/>
<path d="M17.4299 13.13C17.4546 13.9274 17.1733 14.5831 16.8017 14.5946C16.43 14.6061 16.1087 13.9691 16.084 13.1717C16.0661 12.5941 16.3862 11.5155 16.564 10.9651C16.6024 10.8462 16.7685 10.841 16.8142 10.9573C17.0257 11.4957 17.412 12.5524 17.4299 13.13Z" fill="#AAD880"/>
<path d="M15.1822 14.7054C15.4964 15.4387 15.474 16.1518 15.1322 16.2983C14.7904 16.4447 14.2586 15.969 13.9445 15.2358C13.7169 14.7045 13.621 13.5836 13.5855 13.0062C13.5778 12.8815 13.7306 12.8161 13.8156 12.9076C14.2091 13.3316 14.9546 14.1742 15.1822 14.7054V14.7054Z" fill="#AAD880"/>
<path d="M15.1822 14.7055C14.9546 14.1742 14.2091 13.3316 13.8156 12.9076C13.7306 12.816 13.5778 12.8815 13.5855 13.0062C13.5956 13.1713 13.6108 13.3808 13.6324 13.6082C13.9998 14.0339 14.4103 14.5556 14.569 14.926C14.7891 15.4396 14.8438 15.9431 14.7395 16.2491C14.8815 16.3262 15.0176 16.3474 15.1322 16.2983C15.474 16.1519 15.4964 15.4387 15.1822 14.7055V14.7055Z" fill="#80CB8E"/>
<path d="M17.186 16.4134C16.4327 16.1507 15.9213 15.6532 16.0437 15.3021C16.1662 14.951 16.876 14.8792 17.6293 15.1419C18.175 15.3321 19.0672 16.0175 19.5174 16.3807C19.6147 16.4591 19.56 16.6161 19.435 16.617C18.8565 16.6216 17.7317 16.6036 17.186 16.4134Z" fill="#AAD880"/>
<path d="M14.7934 18.0584C14.0401 17.7958 13.5287 17.2983 13.6512 16.9471C13.7736 16.5961 14.4835 16.5243 15.2367 16.787C15.7824 16.9772 16.6746 17.6625 17.1249 18.0257C17.2221 18.1042 17.1674 18.2611 17.0424 18.2621C16.464 18.2667 15.3391 18.2487 14.7934 18.0584V18.0584Z" fill="#AAD880"/>
<path d="M19.5175 16.3806C19.3345 16.2331 19.0786 16.0323 18.8026 15.8331C18.1946 15.8323 17.2234 15.8014 16.7285 15.6289C16.4678 15.538 16.2362 15.419 16.0497 15.2876C16.0477 15.2924 16.0455 15.2971 16.0437 15.3021C15.9213 15.6531 16.4327 16.1507 17.186 16.4133C17.7317 16.6036 18.8566 16.6216 19.435 16.6171C19.56 16.6161 19.6148 16.4591 19.5175 16.3806V16.3806Z" fill="#80CB8E"/>
<path d="M17.1249 18.0258C16.9419 17.8782 16.686 17.6774 16.41 17.4783C15.8019 17.4774 14.8308 17.4466 14.3359 17.274C14.0752 17.1831 13.8436 17.0641 13.6571 16.9327C13.6551 16.9376 13.6529 16.9423 13.6512 16.9472C13.5287 17.2983 14.0401 17.7958 14.7934 18.0585C15.3391 18.2488 16.464 18.2667 17.0425 18.2622C17.1674 18.2612 17.2221 18.1042 17.1249 18.0258Z" fill="#80CB8E"/>
<path d="M0.368862 11.4004C0.697573 12.1783 1.258 12.6848 1.62062 12.5316C1.98324 12.3784 2.01074 11.6235 1.68207 10.8455C1.44394 10.2819 0.659214 9.38587 0.244878 8.9349C0.155386 8.83748 -0.00672381 8.90599 0.000737128 9.03806C0.0352293 9.64951 0.130737 10.8368 0.368862 11.4004V11.4004Z" fill="#AAD880"/>
<path d="M1.68109 10.8455C1.44296 10.2819 0.658237 9.38587 0.243901 8.9349C0.154409 8.83748 -0.00770037 8.90599 -0.000239434 9.03806C0.00936994 9.20841 0.0237449 9.42345 0.0446043 9.65724C0.442495 10.1191 0.902534 10.7025 1.07523 11.1112C1.30285 11.65 1.35953 12.1775 1.25249 12.5019C1.38492 12.5638 1.51117 12.5774 1.61964 12.5316C1.9823 12.3784 2.0098 11.6235 1.68109 10.8455V10.8455Z" fill="#80CB8E"/>
<path d="M2.57011 13.13C2.54542 13.9274 2.82667 14.5831 3.19832 14.5946C3.56996 14.6061 3.89128 13.9691 3.91601 13.1717C3.9339 12.5941 3.61378 11.5155 3.43601 10.9651C3.39761 10.8462 3.23148 10.841 3.18582 10.9573C2.97429 11.4957 2.588 12.5524 2.57011 13.13V13.13Z" fill="#AAD880"/>
<path d="M17.43 13.13C17.4121 12.5523 17.0258 11.4957 16.8143 10.9573C16.7686 10.841 16.6025 10.8462 16.5641 10.965C16.5117 11.1271 16.4471 11.3351 16.3823 11.5624C16.5687 12.0926 16.7601 12.7275 16.7725 13.13C16.7895 13.6787 16.6616 14.1603 16.459 14.4111C16.5619 14.5311 16.679 14.5984 16.8017 14.5946C17.1734 14.5831 17.4547 13.9273 17.43 13.13V13.13Z" fill="#80CB8E"/>
<path d="M3.436 10.9651C3.39761 10.8461 3.23147 10.841 3.18577 10.9573C3.12163 11.1206 3.04144 11.3317 2.96026 11.5624C3.11546 12.1073 3.27112 12.7642 3.25851 13.1717C3.24194 13.7058 3.09222 14.1676 2.88354 14.4111C2.9753 14.5248 3.08241 14.591 3.19831 14.5946C3.56995 14.6062 3.89128 13.9691 3.916 13.1717C3.93389 12.5941 3.61378 11.5155 3.436 10.9651Z" fill="#80CB8E"/>
<path d="M4.81793 14.7054C4.50375 15.4387 4.52613 16.1518 4.86793 16.2983C5.20973 16.4447 5.74149 15.969 6.05567 15.2358C6.28329 14.7045 6.37911 13.5836 6.41466 13.0062C6.42231 12.8815 6.26954 12.8161 6.18454 12.9076C5.79102 13.3316 5.04555 14.1742 4.81793 14.7054V14.7054Z" fill="#AAD880"/>
<path d="M6.18436 12.9076C6.06159 13.0399 5.90456 13.213 5.73964 13.4046C5.68448 13.9589 5.5903 14.6027 5.43386 14.9678C5.22374 15.4582 4.9164 15.833 4.63354 15.9839C4.67593 16.1379 4.75405 16.2496 4.86772 16.2983C5.20952 16.4447 5.74128 15.969 6.05546 15.2357C6.28307 14.7045 6.37889 13.5835 6.41444 13.0062C6.42213 12.8815 6.26936 12.816 6.18436 12.9076V12.9076Z" fill="#80CB8E"/>
<path d="M2.81411 16.4134C3.56735 16.1507 4.07876 15.6532 3.95634 15.3021C3.83391 14.951 3.12403 14.8792 2.37079 15.1419C1.82509 15.3321 0.93286 16.0175 0.482626 16.3807C0.385399 16.4591 0.440087 16.6161 0.565048 16.617C1.14352 16.6216 2.26841 16.6036 2.81411 16.4134V16.4134Z" fill="#AAD880"/>
<path d="M5.20645 18.0584C5.95969 17.7958 6.4711 17.2983 6.34868 16.9471C6.22626 16.5961 5.51637 16.5243 4.76313 16.787C4.21742 16.9772 3.3252 17.6625 2.87496 18.0257C2.77773 18.1042 2.83242 18.2611 2.95738 18.2621C3.53582 18.2667 4.66071 18.2487 5.20645 18.0584Z" fill="#AAD880"/>
<path d="M3.95635 15.3021C3.90624 15.1584 3.7576 15.0615 3.54792 15.0152C3.43229 15.3213 2.99682 15.6615 2.41831 15.8632C2.05581 15.9896 1.43784 16.0399 0.894167 16.0581C0.73737 16.1773 0.595964 16.2892 0.482643 16.3807C0.385378 16.4591 0.440104 16.6161 0.565065 16.617C1.1435 16.6216 2.26839 16.6036 2.81413 16.4133C3.56737 16.1507 4.07878 15.6532 3.95635 15.3021Z" fill="#80CB8E"/>
<path d="M6.34868 16.9472C6.29856 16.8034 6.14993 16.7066 5.94024 16.6603C5.82461 16.9663 5.38915 17.3066 4.81063 17.5082C4.44813 17.6347 3.83016 17.685 3.28648 17.7032C3.12969 17.8224 2.98828 17.9343 2.87496 18.0257C2.77773 18.1042 2.83242 18.2611 2.95738 18.2621C3.53582 18.2666 4.66071 18.2487 5.20645 18.0584C5.95969 17.7958 6.4711 17.2982 6.34868 16.9472V16.9472Z" fill="#80CB8E"/>
<path d="M9.91023 8.08754C11.1541 8.08754 12.1625 7.07917 12.1625 5.83527C12.1625 4.59138 11.1541 3.58301 9.91023 3.58301C8.66634 3.58301 7.65796 4.59138 7.65796 5.83527C7.65796 7.07917 8.66634 8.08754 9.91023 8.08754Z" fill="#ECBE6B"/>
<path d="M10.7489 3.74493C10.853 4.00419 10.9109 4.287 10.9109 4.58349C10.9109 5.82739 9.90254 6.83575 8.65863 6.83575C8.36214 6.83575 8.07933 6.7779 7.82007 6.6738C8.15273 7.50228 8.96296 8.08755 9.91039 8.08755C11.1543 8.08755 12.1627 7.07919 12.1627 5.83529C12.1627 4.88782 11.5774 4.07763 10.7489 3.74493V3.74493Z" fill="#EAB14D"/>
<path d="M10.0747 4.83359L10.3105 5.31136C10.332 5.35476 10.3734 5.38488 10.4213 5.39183L10.9486 5.46843C11.0692 5.48597 11.1174 5.63425 11.0301 5.71937L10.6486 6.09128C10.6139 6.12507 10.5981 6.17378 10.6063 6.22148L10.6964 6.74664C10.717 6.86679 10.5909 6.95843 10.4829 6.90171L10.0113 6.65378C9.96847 6.63124 9.91726 6.63124 9.87441 6.65378L9.40281 6.90171C9.29488 6.95843 9.16874 6.86679 9.18937 6.74664L9.27945 6.22148C9.28765 6.17374 9.27183 6.12507 9.23714 6.09128L8.85562 5.71937C8.76832 5.63425 8.81648 5.48597 8.93714 5.46843L9.46441 5.39183C9.51234 5.38488 9.55374 5.35476 9.57519 5.31136L9.81101 4.83359C9.86484 4.72425 10.0208 4.72425 10.0747 4.83359V4.83359Z" fill="#FFE07D"/>
<path d="M11.0302 5.71942C11.1175 5.6343 11.0693 5.48602 10.9486 5.46848L10.7564 5.44055L10.244 5.94001C10.1926 5.99004 10.1692 6.06215 10.1814 6.13282L10.2964 6.80368L10.483 6.90172C10.5909 6.95844 10.717 6.8668 10.6964 6.74665L10.6063 6.22149C10.5981 6.17376 10.6139 6.12508 10.6486 6.09129L11.0302 5.71942Z" fill="#FFD064"/>
<path d="M12.9253 19.2044H7.08088C6.89623 19.2044 6.74658 19.0547 6.74658 18.8701V16.1069C6.74658 15.9223 6.89627 15.7726 7.08088 15.7726H12.9253C13.1099 15.7726 13.2596 15.9223 13.2596 16.1069V18.8701C13.2596 19.0547 13.1099 19.2044 12.9253 19.2044Z" fill="#407093"/>
<path d="M12.9262 15.7727H12.293V17.9045C12.293 18.0886 12.1438 18.2379 11.9596 18.2379H6.74658V18.871C6.74658 19.0552 6.89584 19.2044 7.07998 19.2044H12.9262C13.1103 19.2044 13.2596 19.0552 13.2596 18.871V16.1061C13.2596 15.922 13.1103 15.7727 12.9262 15.7727V15.7727Z" fill="#365E7D"/>
</g>
<defs>
<clipPath id="clip0">
<rect width="25" height="25" fill="white"/>
</clipPath>
</defs>
</svg>
